<svg height="60" viewBox="0 0 60 60" width="60" xmlns="http://www.w3.org/2000/svg"><g fill="none" fill-rule="evenodd"><path d="m17.306 0h25.388c6.018 0 8.2.627 10.4 1.803a12.267 12.267 0 0 1 5.103 5.103c1.176 2.2 1.803 4.382 1.803 10.4v25.388c0 6.018-.627 8.2-1.803 10.4a12.267 12.267 0 0 1 -5.103 5.103c-2.2 1.176-4.382 1.803-10.4 1.803h-25.388c-6.018 0-8.2-.627-10.4-1.803a12.267 12.267 0 0 1 -5.103-5.103c-1.176-2.2-1.803-4.382-1.803-10.4v-25.388c0-6.018.627-8.2 1.803-10.4a12.267 12.267 0 0 1 5.103-5.103c2.2-1.176 4.382-1.803 10.4-1.803z" fill="#fc6f6f"/><path d="m24.949 13h14.713l-7.422 13.208h8.76l-17.121 21.792 4.013-15.189h-7.892z" stroke="#fff" stroke-linecap="round" stroke-linejoin="round" stroke-width="1.8"/></g></svg>